<svg width="28" height="25" viewBox="0 0 28 25" fill="none" xmlns="http://www.w3.org/2000/svg">
<path d="M18.9975 20.5487L18.1432 21.4023H19.3509H26.227C26.9315 21.4023 27.5 21.9708 27.5 22.6754C27.5 23.3799 26.9315 23.9484 26.227 23.9484H14.3366H13.8158H7.9814C7.17093 23.9484 6.39531 23.629 5.82501 23.0587L1.39244 18.6262C0.202521 17.4362 0.202521 15.5088 1.39244 14.3189L14.1725 1.53888H14.178L14.3245 1.39244C15.5144 0.202521 17.4418 0.202521 18.6317 1.39244L26.239 9.00525L26.2391 9.00538C27.429 10.1953 27.429 12.1227 26.2391 13.3126L18.9975 20.5487ZM14.3366 21.4079H14.5437L14.6902 21.2614L18.4191 17.5325L18.7726 17.179L18.4191 16.8254L10.8061 9.21249L10.4526 8.85894L10.099 9.21249L3.18973 16.1218L2.83618 16.4753L3.18973 16.8289L7.62231 21.2614L7.76875 21.4079H7.97586H13.8158H14.3366Z" fill="black" stroke="white"/>
</svg>
