<svg width="28" height="28" viewBox="0 0 28 28" fill="none" xmlns="http://www.w3.org/2000/svg">
<path d="M15.9965 20.7125L15.9964 20.7125L15.9973 20.7168C16.1113 21.2705 16.3421 21.8007 16.5621 22.306C16.576 22.3378 16.5898 22.3695 16.6035 22.4012L16.6042 22.4026C16.9419 23.1668 17.2445 23.8673 17.2445 24.5984C17.2445 26.2389 16.1365 27.6741 14.5655 27.7392C14.3741 27.7447 14.1867 27.75 13.9945 27.75C6.40532 27.75 0.25 21.5948 0.25 14C0.25 6.40526 6.40526 0.25 14 0.25C21.5947 0.25 27.75 6.40526 27.75 14V14.0003V14.0006V14.0009V14.0012V14.0014V14.0017V14.002V14.0023V14.0026V14.0029V14.0032V14.0035V14.0037V14.004V14.0043V14.0046V14.0049V14.0052V14.0055V14.0058V14.0061V14.0063V14.0066V14.0069V14.0072V14.0075V14.0078V14.0081V14.0084V14.0087V14.0089V14.0092V14.0095V14.0098V14.0101V14.0104V14.0107V14.011V14.0112V14.0115V14.0118V14.0121V14.0124V14.0127V14.013V14.0133V14.0136V14.0138V14.0141V14.0144V14.0147V14.015V14.0153V14.0156V14.0159V14.0162V14.0164V14.0167V14.017V14.0173V14.0176V14.0179V14.0182V14.0185V14.0187V14.019V14.0193V14.0196V14.0199V14.0202V14.0205V14.0208V14.0211V14.0213V14.0216V14.0219V14.0222V14.0225V14.0228V14.0231V14.0234V14.0236V14.0239V14.0242V14.0245V14.0248V14.0251V14.0254V14.0257V14.026V14.0262V14.0265V14.0268V14.0271V14.0274V14.0277V14.028V14.0283V14.0286V14.0288V14.0291V14.0294V14.0297V14.03V14.0303V14.0306V14.0309V14.0311V14.0314V14.0317V14.032V14.0323V14.0326V14.0329V14.0332V14.0335V14.0337V14.034V14.0343V14.0346V14.0349V14.0352V14.0355V14.0358V14.036V14.0363V14.0366V14.0369V14.0372V14.0375V14.0378V14.0381V14.0384V14.0386V14.0389V14.0392V14.0395V14.0398V14.0401V14.0404V14.0407V14.041V14.0412V14.0415V14.0418V14.0421V14.0424V14.0427V14.043V14.0433V14.0435V14.0438V14.0441V14.0444V14.0447V14.045V14.0453V14.0456V14.0459V14.0461V14.0464V14.0467V14.047V14.0473V14.0476V14.0479V14.0482V14.0485V14.0487V14.049V14.0493V14.0496V14.0499V14.0502V14.0505V14.0508V14.051V14.0513V14.0516V14.0519V14.0522V14.0525V14.0528V14.0531V14.0534V14.0536V14.0539V14.0542V14.0545V14.0548V14.0551V14.0554V14.0557V14.0559V14.0562V14.0565V14.0568V14.0571V14.0574V14.0577V14.058V14.0583V14.0585V14.0588V14.0591V14.0594V14.0597V14.06V14.0603V14.0606V14.0609V14.0611V14.0614V14.0617V14.062V14.0623V14.0626V14.0629V14.0632V14.0634V14.0637V14.064V14.0643V14.0646V14.0649V14.0652V14.0655V14.0658V14.066V14.0663V14.0666V14.0669V14.0672V14.0675V14.0678V14.0681V14.0683V14.0686V14.0689V14.0692V14.0695V14.0698V14.0701V14.0704V14.0707V14.0709V14.0712V14.0715V14.0718V14.0721V14.0724V14.0727V14.073V14.0733V14.0735V14.0738V14.0741V14.0744V14.0747V14.075V14.0753V14.0756V14.0758V14.0761V14.0764V14.0767V14.077V14.0773V14.0776V14.0779V14.0782V14.0784V14.0787V14.079V14.0793V14.0796V14.0799V14.0802V14.0805V14.0808V14.081V14.0813V14.0816V14.0819V14.0822V14.0825V14.0828V14.0831V14.0833V14.0836V14.0839V14.0842V14.0845V14.0848V14.0851V14.0854V14.0857V14.0859V14.0862V14.0865V14.0868V14.0871V14.0874V14.0877V14.088V14.0882V14.0885V14.0888V14.0891V14.0894V14.0897V14.09V14.0903V14.0906V14.0908V14.0911V14.0914V14.0917V14.092V14.0923V14.0926V14.0929V14.0932V14.0934V14.0937V14.094V14.0943V14.0946V14.0949V14.0952V14.0955V14.0957V14.096V14.0963V14.0966V14.0969V14.0972V14.0975V14.0978V14.0981V14.0983V14.0986V14.0989V14.0992V14.0995V14.0998V14.1001V14.1004V14.1006V14.1009V14.1012V14.1015V14.1018V14.1021V14.1024V14.1027V14.103V14.1032V14.1035V14.1038V14.1041V14.1044V14.1047V14.105V14.1053V14.1056V14.1058V14.1061V14.1064V14.1067V14.107V14.1073V14.1076V14.1079V14.1081V14.1084V14.1087V14.109V14.1093V14.1096V14.1099V14.1102V14.1105V14.1107V14.111V14.1113V14.1116V14.1119V14.1122V14.1125V14.1128V14.1131V14.1133V14.1136V14.1139V14.1142V14.1145V14.1148V14.1151V14.1154V14.1156V14.1159V14.1162V14.1165V14.1168V14.1171V14.1174V14.1177V14.118V14.1182V14.1185V14.1188V14.1191V14.1194V14.1197V14.12V14.1203V14.1205V14.1208V14.1211V14.1214V14.1217V14.122V14.1223V14.1226V14.1229V14.1231V14.1234V14.1237V14.124V14.1243V14.1246V14.1249V14.1252V14.1255V14.1257V14.126V14.1263V14.1266V14.1269V14.1272V14.1275V14.1278V14.128V14.1283V14.1286V14.1289V14.1292V14.1295V14.1298V14.1301V14.1304V14.1306V14.1309V14.1312V14.1315V14.1318V14.1321V14.1324V14.1327V14.1329V14.1332V14.1335V14.1338V14.1341V14.1344V14.1347V14.135V14.1353V14.1355V14.1358V14.1361V14.1364V14.1367V14.137V14.1373V14.1376V14.1379V14.1381V14.1384V14.1387V14.139V14.1393V14.1396V14.1399V14.1402V14.1404V14.1407V14.141V14.1413V14.1416V14.1419V14.1422V14.1425V14.1428V14.143V14.1433V14.1436V14.1439V14.1442V14.1445V14.1448V14.1451V14.1454V14.1456V14.1459V14.1462V14.1463C27.7292 15.9665 26.0666 17.25 24.1664 17.25H18.8125C17.2252 17.25 15.9375 18.5377 15.9375 20.125C15.9375 20.3304 15.9617 20.5269 15.9965 20.7125ZM7.25 15.75C7.25 15.2196 7.03929 14.7109 6.66421 14.3358C6.28914 13.9607 5.78043 13.75 5.25 13.75C4.71957 13.75 4.21086 13.9607 3.83579 14.3358C3.46071 14.7109 3.25 15.2196 3.25 15.75C3.25 16.2804 3.46071 16.7891 3.83579 17.1642C4.21086 17.5393 4.71957 17.75 5.25 17.75C5.78043 17.75 6.28914 17.5393 6.66421 17.1642C7.03929 16.7891 7.25 16.2804 7.25 15.75ZM7 10.75C7.53043 10.75 8.03914 10.5393 8.41421 10.1642C8.78929 9.78914 9 9.28043 9 8.75C9 8.21957 8.78929 7.71086 8.41421 7.33579C8.03914 6.96071 7.53043 6.75 7 6.75C6.46957 6.75 5.96086 6.96071 5.58579 7.33579C5.21071 7.71086 5 8.21957 5 8.75C5 9.28043 5.21071 9.78914 5.58579 10.1642C5.96086 10.5393 6.46957 10.75 7 10.75ZM16 5.25C16 4.71957 15.7893 4.21086 15.4142 3.83579C15.0391 3.46071 14.5304 3.25 14 3.25C13.4696 3.25 12.9609 3.46071 12.5858 3.83579C12.2107 4.21086 12 4.71957 12 5.25C12 5.78043 12.2107 6.28914 12.5858 6.66421C12.9609 7.03929 13.4696 7.25 14 7.25C14.5304 7.25 15.0391 7.03929 15.4142 6.66421C15.7893 6.28914 16 5.78043 16 5.25ZM21 10.75C21.5304 10.75 22.0391 10.5393 22.4142 10.1642C22.7893 9.78914 23 9.28043 23 8.75C23 8.21957 22.7893 7.71086 22.4142 7.33579C22.0391 6.96071 21.5304 6.75 21 6.75C20.4696 6.75 19.9609 6.96071 19.5858 7.33579C19.2107 7.71086 19 8.21957 19 8.75C19 9.28043 19.2107 9.78914 19.5858 10.1642C19.9609 10.5393 20.4696 10.75 21 10.75Z" fill="black" stroke="white" stroke-width="0.5"/>
</svg>
